<?xml version="1.0" encoding="UTF-8"?>
<svg id="Ebene_1" xmlns="http://www.w3.org/2000/svg" baseProfile="tiny" version="1.2" viewBox="0 0 100 100">
  <!-- Generator: Adobe Illustrator 29.8.3, SVG Export Plug-In . SVG Version: 2.1.1 Build 3)  -->
  <g>
    <path d="M62.9,85.7c-4,1.4-8.4,2.2-12.9,2.2-21.9,0-39.6-17.7-39.6-39.6s6.6-25.2,16.8-32.4c-2.2-2.2-4-3.8-5.6-5C10.3,19.5,3,33,3,48.3c0,26,21,47,47,47s9.4-.7,13.8-2.1c-.1-2.7-.5-5.3-.9-7.5Z" fill="#adffff"/>
    <path d="M50,1.3c-7.2,0-14,1.6-20.1,4.5,1.3.6,2.7,1.2,4.1,1.9,1.6.9,3.2,1.8,4.5,2.6,3.6-1.1,7.5-1.7,11.5-1.7,21.9,0,39.6,17.7,39.6,39.6s-6.3,24.6-16,31.8c-.1,1.2-.3,2.4-.4,3.6-.3,2.2-.8,4.2-1.3,6.2,15-7.9,25.2-23.5,25.2-41.6C97,22.3,76,1.3,50,1.3Z" fill="#adffff"/>
  </g>
  <g>
    <path d="M16.9,6.7c2.4,1,7.9,4,15.9,13.6,0,0,5.3,9,10.6,12.7,2.1,1.5,3.4,3.8,3.5,6.3,0,1-.1,2.2-.5,3.4,0,0-2.1,1.5-5.5,4.9,0,0-11.2,1.8-18.8,7.1-.3.2,0,.6.2.5,2.8-.9,8.8-2.3,12.7-1.2,0,0-.9,2.7,3.1,2.3,0,0,.5,1.9-4.3,8.1-.4.5.2,1.2.8.9,2.3-1.3,6.4-4.2,11.5-10.6,0,0,3.7-.2,6.2-1.7,0,0,4.4,2.7,5.4,7.6,0,0,0,6.3,4.1,16,0,0,4,10.6,3.2,20.5-.1,1.4,1.8,2,2.5.7,3.4-6.5,7.5-19.2,3.8-39.8,0,0-.9-8.9-5.9-12.7,0,0,3.6-1.3,5.6-6.6,0,0,.9-1.3,2.6-1.4,0,0-1.5-.7-3.4-.4,0,0-1.7-3.2-9.4-1.1,0,0,.1-6.6-9.5-14.4,0,0-5.4-4.4-8.1-6.6,0,0-17.4-13.7-26.4-9.6-.5.3-.5,1,0,1.3Z" fill="#adffff" stroke="#fff" stroke-miterlimit="10" stroke-width="0"/>
    <path d="M66.2,98.7c-.1,0-.3,0-.4,0-.5-.2-1-.6-1-1.4.4-5.1-.5-10.4-1.3-14-.9-3.8-1.9-6.5-1.9-6.5-4-9.6-4.1-16-4.1-16-.5-2.5-1.9-4.4-3-5.6-1.1-1.2-2.2-1.9-2.3-1.9-2.4,1.5-6,1.7-6.2,1.7-5,6.3-9,9.2-11.5,10.6-.3.2-.6,0-.8-.1-.2-.2-.2-.5,0-.8,4.4-5.8,4.3-7.9,4.3-8.1-1.4.1-2.4-.2-2.8-.8-.5-.6-.3-1.4-.3-1.6-3.9-1.1-9.6.3-12.6,1.2-.2,0-.3,0-.4-.2,0-.1,0-.3.1-.4,3.9-2.7,8.8-4.5,12.2-5.5,3.6-1.1,6.4-1.5,6.5-1.6,3.2-3.3,5.3-4.8,5.5-4.9.4-1.1.5-2.3.5-3.4,0-2.5-1.4-4.8-3.5-6.3-5.2-3.6-10.5-12.6-10.6-12.7-8-9.5-13.4-12.6-15.9-13.6-.3-.1-.4-.4-.4-.6,0-.3.2-.5.4-.7,2.1-.9,4.7-1,7.9-.2,2.6.6,5.5,1.8,8.7,3.5,5.4,2.9,9.8,6.3,9.8,6.3,2.7,2.2,8,6.6,8.1,6.6,4.9,4,7.3,7.7,8.3,10.1,1.1,2.4,1.1,4,1.1,4.3,4-1.1,6.3-.7,7.6-.2,1.3.5,1.7,1.2,1.8,1.3,1.9-.4,3.4.4,3.4.4h0s-.1,0-.1,0c-1.7,0-2.5,1.4-2.5,1.4-1,2.7-2.5,4.4-3.6,5.3-1,.9-1.8,1.2-2,1.3,2.6,2,4,5.3,4.8,7.7.8,2.7,1.1,4.9,1.1,4.9,1.6,9.2,1.9,17.7.7,25.2-.8,5.5-2.4,10.4-4.6,14.6-.3.5-.7.7-1.2.7ZM52.3,53.2h0s1.1.7,2.3,2c1.1,1.2,2.5,3.1,3.1,5.6,0,0,.1,6.4,4.1,16,0,0,1,2.7,1.9,6.5.8,3.5,1.7,8.9,1.3,14,0,.7.4,1.2.9,1.3.5.1,1.1,0,1.5-.6,3.7-7,7.4-19.7,3.8-39.8,0,0-.2-2.3-1.1-4.9-.8-2.5-2.2-5.8-4.8-7.7h0s0,0,0,0c0,0,.9-.3,2.1-1.3,1.1-.9,2.5-2.6,3.6-5.3,0,0,.8-1.3,2.5-1.4-.4-.2-1.7-.6-3.3-.3h0s0,0,0,0c0,0-.4-.8-1.8-1.3-1.3-.5-3.6-.8-7.6.2h0s0,0,0,0c0,0,0-1.7-1.1-4.3-1.1-2.4-3.4-6.1-8.3-10.1,0,0-5.4-4.4-8.1-6.6,0,0-4.4-3.5-9.8-6.3-3.2-1.7-6.1-2.9-8.6-3.5-3.2-.8-5.8-.7-7.9.2-.2.1-.4.3-.4.6,0,.3.2.5.4.6,2.5,1,8,4.1,16,13.7,0,0,5.4,9.1,10.6,12.7,2.1,1.5,3.4,3.9,3.5,6.3,0,1.2-.1,2.3-.5,3.5h0s0,0,0,0c0,0-2.1,1.5-5.5,4.9h0s0,0,0,0c0,0-2.8.5-6.5,1.6-3.4,1-8.3,2.8-12.2,5.5-.1,0-.1.2,0,.3,0,0,.2.2.3.1,3.1-.9,8.8-2.3,12.7-1.2h0s0,0,0,0c0,0-.3.9.2,1.6.5.6,1.4.8,2.8.7h0s0,0,0,0c0,0,.1.5-.4,1.7-.4,1.1-1.5,3.2-3.9,6.4-.2.3-.1.6,0,.7.1.2.4.3.7.1,2.5-1.3,6.4-4.3,11.5-10.6h0s0,0,0,0c0,0,3.7-.2,6.2-1.7h0Z" fill="#adffff" stroke="#fff" stroke-miterlimit="10" stroke-width="0"/>
  </g>
</svg>