<?xml version="1.0" encoding="UTF-8"?>
<svg id="Ebene_1" xmlns="http://www.w3.org/2000/svg" baseProfile="tiny" version="1.2" viewBox="0 0 560 203.3">
  <!-- Generator: Adobe Illustrator 29.8.3, SVG Export Plug-In . SVG Version: 2.1.1 Build 3)  -->
  <g>
    <g>
      <path d="M122.9,171.7c-7.9,2.7-16.5,4.2-25.3,4.2-42.9,0-77.7-34.8-77.7-77.7s13-49.4,32.9-63.5c-4.2-4.3-7.9-7.5-11-9.8C19.7,41.8,5.4,68.4,5.4,98.3c0,50.9,41.2,92.1,92.1,92.1s18.5-1.4,27.1-4c-.2-5.3-.9-10.3-1.7-14.6Z" fill="#000028"/>
      <path d="M97.6,6.1c-14.1,0-27.4,3.2-39.4,8.8,2.6,1.1,5.2,2.3,8,3.8,3.2,1.7,6.2,3.5,8.9,5.2,7.1-2.2,14.7-3.3,22.6-3.3,42.9,0,77.7,34.8,77.7,77.7s-12.4,48.3-31.5,62.4c-.2,2.4-.5,4.7-.8,7-.6,4.2-1.5,8.3-2.6,12.2,29.3-15.4,49.3-46.2,49.3-81.6,0-50.9-41.2-92.1-92.1-92.1Z" fill="#000028"/>
    </g>
    <g>
      <path d="M32.6,16.7c4.7,1.9,15.5,7.9,31.3,26.8,0,0,10.5,17.7,20.7,24.9,4.1,2.9,6.7,7.4,6.8,12.4,0,2.1-.2,4.3-1,6.8,0,0-4.1,2.9-10.7,9.7,0,0-21.9,3.6-36.8,13.8-.5.4-.1,1.2.5,1,5.6-1.7,17.2-4.6,24.9-2.4,0,0-1.7,5.2,6,4.6,0,0,.9,3.7-8.4,16-.8,1,.4,2.4,1.5,1.8,4.6-2.5,12.5-8.1,22.5-20.7,0,0,7.3-.4,12.2-3.3,0,0,8.6,5.3,10.5,14.8,0,0,.1,12.3,8,31.4,0,0,7.8,20.7,6.2,40.2-.2,2.8,3.5,3.9,4.8,1.4,6.7-12.7,14.7-37.6,7.5-78.1,0,0-1.7-17.4-11.5-24.8,0,0,7.1-2.6,11.1-13,0,0,1.7-2.6,5-2.8,0,0-2.9-1.4-6.6-.7,0,0-3.3-6.3-18.4-2.1,0,0,.2-13-18.5-28.2,0,0-10.5-8.6-15.9-13,0,0-34.2-26.9-51.8-18.8-1.1.5-1,2,0,2.5Z" fill="#000028"/>
      <path d="M129.4,197.2c-.3,0-.5,0-.8-.1-1-.3-2-1.3-1.9-2.7.8-10.1-.9-20.5-2.5-27.4-1.7-7.5-3.7-12.7-3.7-12.8-7.8-18.9-8-31.3-8-31.4-1-4.9-3.8-8.7-6-10.9-2.2-2.3-4.2-3.6-4.5-3.8-4.7,2.9-11.7,3.3-12.2,3.3-9.9,12.4-17.7,18.1-22.5,20.7-.6.3-1.2,0-1.5-.3-.3-.4-.5-1,0-1.6,8.6-11.4,8.4-15.4,8.4-15.9-2.8.2-4.6-.3-5.6-1.5-1-1.2-.6-2.8-.5-3.1-7.6-2.2-18.8.5-24.8,2.4-.3.1-.6,0-.7-.3-.1-.2,0-.6.2-.8,7.7-5.3,17.3-8.8,24-10.8,7.1-2.1,12.5-3,12.8-3.1,6.4-6.5,10.4-9.5,10.7-9.7.7-2.2,1.1-4.5,1-6.7-.1-4.8-2.7-9.4-6.8-12.3-10.1-7.1-20.6-24.8-20.7-24.9-15.6-18.7-26.3-24.8-31.2-26.7-.5-.2-.9-.7-.9-1.3,0-.6.3-1.1.8-1.3,4-1.8,9.2-2,15.5-.5,5,1.2,10.7,3.5,17,6.9,10.6,5.6,19.2,12.4,19.3,12.4,5.3,4.4,15.8,12.9,15.9,13,9.7,7.8,14.2,15.1,16.3,19.8,2.1,4.7,2.2,7.8,2.2,8.4,7.8-2.1,12.4-1.4,14.8-.5,2.5,1,3.4,2.4,3.5,2.6,3.7-.7,6.6.7,6.6.7h.2c0,0-.2.1-.2.1-3.3.2-5,2.7-5,2.8-2.1,5.3-5,8.6-7,10.4-2,1.7-3.6,2.4-4,2.6,5,3.8,7.9,10.4,9.4,15.2,1.6,5.2,2.1,9.6,2.1,9.6,3.2,18,3.7,34.6,1.4,49.4-1.6,10.8-4.7,20.4-9,28.6-.5,1-1.4,1.4-2.3,1.4ZM102.1,107.9h0s2.2,1.4,4.5,3.8c2.2,2.3,5,6.1,6,11,0,.1.2,12.5,8,31.4,0,0,2,5.3,3.7,12.8,1.6,6.9,3.3,17.4,2.5,27.4-.1,1.4.8,2.3,1.8,2.6,1,.3,2.3,0,2.9-1.2,7.3-13.8,14.5-38.6,7.5-78,0,0-.4-4.4-2.1-9.6-1.5-4.8-4.3-11.3-9.4-15.2h0c0,0,0,0,0,0,0,0,1.8-.7,4-2.6,2.1-1.8,5-5,7-10.3,0,0,1.7-2.5,4.8-2.8-.7-.3-3.2-1.2-6.4-.6h0s0,0,0,0c0,0-.8-1.6-3.5-2.6-2.5-1-7-1.6-14.8.5h0s0,0,0,0c0,0,0-3.3-2.2-8.4-2.1-4.7-6.6-11.9-16.3-19.8-.1,0-10.6-8.6-15.9-13,0,0-8.7-6.8-19.3-12.4-6.2-3.3-11.9-5.6-17-6.8-6.3-1.5-11.5-1.4-15.5.4-.5.2-.8.7-.8,1.2,0,.5.3,1,.8,1.2,5,2,15.6,8,31.3,26.8.1.2,10.6,17.8,20.7,24.9,4.1,2.9,6.7,7.6,6.8,12.4,0,2.3-.3,4.6-1,6.8h0s0,0,0,0c0,0-4.2,3-10.7,9.7h0s0,0,0,0c0,0-5.6.9-12.8,3.1-6.7,2-16.3,5.5-23.9,10.8-.2.2-.3.4-.2.6,0,.2.3.4.6.3,6-1.8,17.3-4.6,24.9-2.4h0s0,0,0,0c0,0-.6,1.8.5,3.1.9,1.2,2.8,1.7,5.5,1.4h0s0,0,0,0c0,0,.2,1-.7,3.4-.9,2.2-2.9,6.3-7.7,12.6-.4.5-.2,1.1,0,1.4.3.3.8.6,1.4.3,4.8-2.6,12.6-8.3,22.5-20.7h0s0,0,0,0c0,0,7.3-.4,12.2-3.3h0Z" fill="#000028"/>
    </g>
  </g>
  <g>
    <path d="M249.9,57.7h-13l-25.7,64.9h15l4.3-11.8h25.4l4.3,11.8h15.2l-25.5-64.9ZM234.7,99.1l8.5-23.1,8.4,23.1h-16.9Z" fill="#000028"/>
    <path d="M281.7,122.6v-44.7h14.1v44.7h-14.1Z" fill="#000028"/>
    <path d="M341.2,81l-8.4,10.6c-.6-.7-1.4-1.2-2.3-1.6-.9-.4-2-.5-3.1-.5-2.3,0-4.2.7-5.6,2.2s-2.1,3.6-2.1,6.5v24.5h-14.1v-44.7h14.1v3.4c2.8-2.9,6.6-4.3,11.5-4.3s4,.3,5.7,1c1.6.7,3,1.6,4.3,3Z" fill="#000028"/>
    <path d="M411.3,67.3c-1.9-3.1-4.5-5.5-7.9-7.1-3.3-1.7-7-2.5-11.1-2.5h-27.1v64.9h14.4v-23.6h12.7c4.1,0,7.8-.8,11.1-2.5,3.3-1.7,5.9-4.1,7.9-7.2,1.9-3.1,2.9-6.8,2.9-11s-1-7.9-2.9-11ZM398.6,83.5c-.9,1.4-2,2.5-3.5,3.2-1.5.7-3.1,1.1-4.9,1.1h-10.6v-18.8h10.6c1.8,0,3.4.4,4.9,1.1,1.5.7,2.6,1.8,3.5,3.2.9,1.4,1.3,3.1,1.3,5s-.4,3.7-1.3,5.2Z" fill="#000028"/>
    <path d="M450.8,78v3.7c-1.2-1.2-2.6-2.1-4.2-2.9-2.4-1.2-5.1-1.7-8.1-1.7s-7.8,1-11,3c-3.2,2-5.8,4.8-7.6,8.3-1.9,3.5-2.8,7.5-2.8,11.9s.9,8.5,2.8,12c1.9,3.5,4.4,6.2,7.6,8.3,3.2,2,6.9,3,11,3s5.7-.6,8.2-1.8c1.6-.8,3-1.7,4.1-2.8v3.6h13.8v-44.7h-13.8ZM448.6,107.9c-1.8,2-4.3,3-7.3,3s-3.6-.4-5.2-1.4c-1.5-.9-2.7-2.2-3.6-3.8-.9-1.6-1.3-3.4-1.3-5.4s.4-3.9,1.3-5.5c.9-1.6,2.1-2.8,3.6-3.7,1.5-.9,3.2-1.3,5.2-1.3s3.7.4,5.2,1.3c1.5.9,2.7,2.1,3.5,3.7.8,1.6,1.2,3.4,1.2,5.5,0,3.1-.9,5.6-2.8,7.6Z" fill="#000028"/>
    <polygon points="505 78 505 89.9 494.9 89.9 494.9 122.6 480.9 122.6 480.9 89.9 470.8 89.9 470.8 78 480.9 78 480.9 59.5 494.9 59.5 494.9 78 505 78" fill="#000028"/>
    <path d="M554.8,94v28.6h-14.1v-25.5c0-2.3-.7-4.2-2.2-5.6s-3.3-2.2-5.5-2.2-2.9.3-4,1c-1.2.6-2.1,1.6-2.8,2.8-.7,1.2-1,2.6-1,4.1v25.5h-14.1V55.9h14.1v25.4c.9-.8,1.9-1.5,2.9-2.1,2.6-1.4,5.7-2.2,9.1-2.2s6.6.7,9.2,2.2c2.6,1.4,4.7,3.4,6.1,6,1.4,2.6,2.2,5.5,2.2,8.9Z" fill="#000028"/>
  </g>
  <polygon points="293.3 60.8 297.3 66.3 292.5 69.8 288.5 64.3 284.5 69.8 279.6 66.3 283.7 60.8 277.2 58.7 279 53 285.5 55.1 285.5 48.3 291.5 48.3 291.5 55.1 297.9 53 299.8 58.7 293.3 60.8" fill="#000028"/>
</svg>